<?xml version="1.0" encoding="UTF-8" standalone="no" ?>
<!DOCTYPE svg PUBLIC "-//W3C//DTD SVG 1.1//EN" "http://www.w3.org/Graphics/SVG/1.1/DTD/svg11.dtd">
<svg xmlns="http://www.w3.org/2000/svg" xmlns:xlink="http://www.w3.org/1999/xlink" version="1.1" width="1200" height="628" viewBox="0 0 1200 628" xml:space="preserve">
<desc>Created with Fabric.js 5.2.4</desc>
<defs>
</defs>
<rect x="0" y="0" width="100%" height="100%" fill="transparent"></rect>
<g transform="matrix(1 0 0 1 600 314)" id="23c53a68-53b6-4ab5-8474-9e502b6c15c4"  >
<rect style="stroke: none; stroke-width: 1; stroke-dasharray: none; stroke-linecap: butt; stroke-dashoffset: 0; stroke-linejoin: miter; stroke-miterlimit: 4; fill: rgb(255,255,255); fill-rule: nonzero; opacity: 1; visibility: hidden;" vector-effect="non-scaling-stroke"  x="-600" y="-314" rx="0" ry="0" width="1200" height="628" />
</g>
<g transform="matrix(Infinity NaN NaN Infinity 0 0)" id="2fa219b0-cef4-4521-b764-87f11096710e"  >
</g>
<g transform="matrix(18.27 0 0 9.73 600 314)" id="db99942c-920a-43d6-a5bb-03413aaa4394"  >
<rect style="stroke: rgb(0,0,0); stroke-opacity: 0; stroke-width: 0; stroke-dasharray: none; stroke-linecap: butt; stroke-dashoffset: 0; stroke-linejoin: miter; stroke-miterlimit: 4; fill: rgb(72,62,255); fill-rule: nonzero; opacity: 1;" vector-effect="non-scaling-stroke"  x="-33.0835" y="-33.0835" rx="0" ry="0" width="66.167" height="66.167" />
</g>
<g transform="matrix(6.36 0 -0.07 5.93 94.05 564.25)" id="7c72f524-dedc-4011-9bc1-dbf2ff2b7e29"  >
<path style="stroke: rgb(0,0,0); stroke-opacity: 0; stroke-width: 0; stroke-dasharray: none; stroke-linecap: butt; stroke-dashoffset: 0; stroke-linejoin: miter; stroke-miterlimit: 4; fill: rgb(98,90,255); fill-rule: nonzero; opacity: 1;" vector-effect="non-scaling-stroke"  transform=" translate(-8.53, 1.33)" d="M 29.3 -56.3 C 36.7 -46.5 40.6 -36.1 50.9 -26.6 C 61.1 -17.1 77.7 -8.6 82.4 2.7 C 87 13.9 79.8 27.9 66.9 32.9 C 54.1 37.9 35.8 34.1 23.7 42.7 C 11.6 51.3 5.8 72.4 -2.3 76.3 C -10.3 80.2 -20.7 67 -32.5 58.2 C -44.3 49.4 -57.6 45.2 -63.3 36.3 C -68.9 27.3 -66.9 13.7 -62.7 2.4 C -58.5 -8.8 -52.2 -17.6 -48.7 -30.3 C -45.2 -43 -44.6 -59.6 -36.9 -69.2 C -29.3 -78.8 -14.6 -81.6 -1.8 -78.4 C 11 -75.2 21.9 -66 29.3 -56.3 Z" stroke-linecap="round" />
</g>
<g transform="matrix(2.01 0 0 1.86 2.7 518.26)" id="cef67183-d792-4ddd-a6ef-6d36a37eeb1b"  >
<path style="stroke: rgb(0,0,0); stroke-opacity: 0; stroke-width: 0; stroke-dasharray: none; stroke-linecap: butt; stroke-dashoffset: 0; stroke-linejoin: miter; stroke-miterlimit: 4; fill: rgb(255,175,126); fill-rule: nonzero; opacity: 1;" vector-effect="non-scaling-stroke"  transform=" translate(1.8, -0.61)" d="M 60.8 -61.6 C 75.6 -46 82.3 -23 82.5 0.2 C 82.6 23.3 76.3 46.6 61.5 62.6 C 46.6 78.6 23.3 87.2 0.3 86.8 C -22.6 86.5 -45.3 77.2 -61.1 61.2 C -77 45.3 -86 22.6 -86.1 -0.1 C -86.2 -22.9 -77.5 -45.8 -61.6 -61.5 C -45.8 -77.1 -22.9 -85.6 0 -85.6 C 23 -85.6 46 -77.3 60.8 -61.6 Z" stroke-linecap="round" />
</g>
<g transform="matrix(NaN NaN NaN NaN 0 0)"  >
<g style=""   >
</g>
</g>
<g transform="matrix(NaN NaN NaN NaN 0 0)"  >
<g style=""   >
</g>
</g>
<g transform="matrix(NaN NaN NaN NaN 0 0)"  >
<g style=""   >
</g>
</g>
<g transform="matrix(-2.61 6.12 -7.56 -3.22 1111.41 620.54)" id="2b15fec1-07dc-46be-9236-8f0ac83df057"  >
<path style="stroke: rgb(0,0,0); stroke-opacity: 0; stroke-width: 0; stroke-dasharray: none; stroke-linecap: butt; stroke-dashoffset: 0; stroke-linejoin: miter; stroke-miterlimit: 4; fill: rgb(249,129,141); fill-rule: nonzero; opacity: 1;" vector-effect="non-scaling-stroke"  transform=" translate(-5.64, -4.86)" d="M 19.8 -29.4 C 31.7 -27.4 51.5 -34.3 60.1 -30.9 C 68.8 -27.5 66.1 -13.7 65.1 -0.6 C 64.1 12.6 64.8 25.2 60 35.3 C 55.3 45.4 45.2 53.1 34.3 53 C 23.4 52.9 11.7 45.2 4.2 37.8 C -3.2 30.5 -6.5 23.7 -16.4 23.2 C -26.3 22.7 -42.9 28.5 -50.3 25.7 C -57.7 22.9 -56 11.4 -48 4.6 C -40 -2.2 -25.8 -4.5 -19.4 -8.9 C -12.9 -13.3 -14.1 -19.9 -12.2 -27.6 C -10.2 -35.3 -5.1 -44.2 -0.6 -43.2 C 4 -42.2 7.9 -31.4 19.8 -29.4 Z" stroke-linecap="round" />
</g>
<g transform="matrix(NaN NaN NaN NaN 0 0)"  >
<g style=""   >
</g>
</g>
<g transform="matrix(NaN NaN NaN NaN 0 0)"  >
<g style=""   >
</g>
</g>
<g transform="matrix(-0.39 -0.55 0.55 -0.39 760.13 443.45)"  >
<path style="stroke: rgb(0,0,0); stroke-opacity: 0; stroke-width: 0; stroke-dasharray: none; stroke-linecap: butt; stroke-dashoffset: 0; stroke-linejoin: miter; stroke-miterlimit: 4; fill: rgb(251,254,255); fill-rule: nonzero; opacity: 1;" vector-effect="non-scaling-stroke"  transform=" translate(-50, -50)" d="M 94.75 50 C 94.75 56.213 89.514 61.25 83.054 61.25 L 16.946 61.25 C 10.486 61.25 5.25 56.213 5.25 50 L 5.25 50 C 5.25 43.787 10.486 38.75 16.945999999999998 38.75 L 83.053 38.75 C 89.514 38.75 94.75 43.787 94.75 50 L 94.75 50 z" stroke-linecap="round" />
</g>
<g transform="matrix(0.31 -0.59 0.59 0.31 710.59 428.36)"  >
<path style="stroke: rgb(0,0,0); stroke-opacity: 0; stroke-width: 0; stroke-dasharray: none; stroke-linecap: butt; stroke-dashoffset: 0; stroke-linejoin: miter; stroke-miterlimit: 4; fill: rgb(251,254,255); fill-rule: nonzero; opacity: 1;" vector-effect="non-scaling-stroke"  transform=" translate(-50, -50)" d="M 94.75 50 C 94.75 56.213 89.514 61.25 83.054 61.25 L 16.946 61.25 C 10.486 61.25 5.25 56.213 5.25 50 L 5.25 50 C 5.25 43.787 10.486 38.75 16.945999999999998 38.75 L 83.053 38.75 C 89.514 38.75 94.75 43.787 94.75 50 L 94.75 50 z" stroke-linecap="round" />
</g>
<g transform="matrix(0.27 -0.61 0.61 0.27 725.64 489.85)"  >
<path style="stroke: rgb(0,0,0); stroke-opacity: 0; stroke-width: 0; stroke-dasharray: none; stroke-linecap: butt; stroke-dashoffset: 0; stroke-linejoin: miter; stroke-miterlimit: 4; fill: rgb(251,254,255); fill-rule: nonzero; opacity: 1;" vector-effect="non-scaling-stroke"  transform=" translate(-50, -50)" d="M 94.75 50 C 94.75 56.213 89.514 61.25 83.054 61.25 L 16.946 61.25 C 10.486 61.25 5.25 56.213 5.25 50 L 5.25 50 C 5.25 43.787 10.486 38.75 16.945999999999998 38.75 L 83.053 38.75 C 89.514 38.75 94.75 43.787 94.75 50 L 94.75 50 z" stroke-linecap="round" />
</g>
</svg>